<?xml version="1.0" encoding="UTF-8"?>
<!DOCTYPE svg PUBLIC "-//W3C//DTD SVG 1.1//EN" "http://www.w3.org/Graphics/SVG/1.1/DTD/svg11.dtd">
<!-- Creator: CorelDRAW -->
<svg xmlns="http://www.w3.org/2000/svg" xml:space="preserve" width="210mm" height="117mm" version="1.1" style="shape-rendering:geometricPrecision; text-rendering:geometricPrecision; image-rendering:optimizeQuality; fill-rule:evenodd; clip-rule:evenodd"
viewBox="0 0 21000 11700"
 xmlns:xlink="http://www.w3.org/1999/xlink"
 xmlns:xodm="http://www.corel.com/coreldraw/odm/2003">
 <defs>
  <style type="text/css">
   <![CDATA[
    .str0 {stroke:#FF612E;stroke-width:881.94;stroke-linecap:round;stroke-linejoin:round;stroke-miterlimit:10}
    .fil0 {fill:none;fill-rule:nonzero}
   ]]>
  </style>
 </defs>
 <g id="Camada_x0020_1">
  <metadata id="CorelCorpID_0Corel-Layer"/>
  <path class="fil0 str0" d="M525.59 518.04c1865.09,290.52 3568.24,2714.76 3755.88,6094.24 117.56,2117.27 -805.7,4565.64 -1646.38,4570.71 -858.19,5.18 -1825.1,-2534.72 -1697.86,-4803.1 143.29,-2554.5 1731.25,-5783.14 3678.67,-5810.2 2007.14,-27.87 3728.94,3354.65 3833.08,6068.44 80.36,2094.83 -775.78,4505.76 -1620.72,4519.03 -848.01,13.29 -1804.22,-2386.6 -1749.25,-4519.03 69.81,-2708.52 1798.6,-6057.92 3807.34,-6042.62 2015.73,15.36 3658.46,3413.85 3730.15,6094.24 55.72,2084.28 -818.94,4465.6 -1646.46,4467.41 -836.62,1.83 -1740.17,-2428.52 -1672.13,-4570.69 84.1,-2647.82 1689.2,-6011.48 3678.75,-6042.59 2005.2,-31.35 3741.61,3332.78 3858.75,6042.59 92.58,2141.64 -795.33,4588.2 -1646.39,4596.53 -848.41,8.28 -1793.32,-2405.36 -1723.58,-4544.87 89.77,-2754.2 1895.43,-6114.97 3910.21,-6068.44 1310.7,30.27 2440.89,1496.39 3084.5,3256.72m0 6087.87c-304.34,754.13 -694.43,1266.13 -1077.87,1268.72 -857.85,5.75 -1803.95,-2536.64 -1723.59,-4751.47 96.92,-2672.18 1676.62,-4557.97 2340.97,-5267.9"/>
 </g>
</svg>
