<?xml version="1.0" encoding="UTF-8"?>
<!DOCTYPE svg PUBLIC "-//W3C//DTD SVG 1.1//EN" "http://www.w3.org/Graphics/SVG/1.1/DTD/svg11.dtd">
<!-- Creator: CorelDRAW -->
<svg xmlns="http://www.w3.org/2000/svg" xml:space="preserve" width="98mm" height="17mm" version="1.1" style="shape-rendering:geometricPrecision; text-rendering:geometricPrecision; image-rendering:optimizeQuality; fill-rule:evenodd; clip-rule:evenodd"
viewBox="0 0 9800 1700"
 xmlns:xlink="http://www.w3.org/1999/xlink"
 xmlns:xodm="http://www.corel.com/coreldraw/odm/2003">
 <defs>
  <style type="text/css">
   <![CDATA[
    .fil1 {fill:#101010;fill-rule:nonzero}
    .fil0 {fill:#FF4F33;fill-rule:nonzero}
   ]]>
  </style>
 </defs>
 <g id="Camada_x0020_1">
  <metadata id="CorelCorpID_0Corel-Layer"/>
  <g id="_1876989262896">
   <path class="fil0" d="M1979.82 450.71c-31.22,-140.12 -115.43,-260 -237.38,-337.57 -121.82,-77.44 -265.75,-102.94 -406.26,-71.9l-756.11 168.2c-140.19,31.19 -260.14,115.5 -337.64,237.35 -59.2,93.1 -87.95,199.29 -84.46,306.67 -26.81,27.24 -51.12,57.4 -72.14,90.49 -77.47,121.88 -103.05,266.21 -71.9,406.36 31.22,140.13 115.47,259.97 237.39,337.54 87.94,55.92 187.6,84.85 288.99,84.85 39.16,0 78.46,-4.27 117.3,-12.92l756.07 -168.2c256.97,-57.22 430.29,-289.95 422.03,-544.02 26.85,-27.23 51.12,-57.47 72.18,-90.59 77.68,-121.89 103.12,-266.21 71.93,-406.26zm-592.03 923.89l-756.07 168.2c-225.99,50.13 -450.71,-92.64 -500.81,-318.56 -24.09,-108.44 -4.44,-220.23 55.42,-314.92 39.16,115.85 116.28,214.42 221.58,281.41 88.09,55.99 187.79,84.84 289,84.84 39.12,0 78.42,-4.3 117.26,-12.94l756.25 -168.21c48.97,-10.93 95.36,-28.43 138.4,-51.64 -30.38,159.7 -152.58,294.35 -321.03,331.82zm156.74 -397.16l-756.22 168.21c-108.86,24.65 -221.19,4.37 -316.16,-55.99 -94.82,-60.36 -160.47,-153.6 -184.67,-262.54 -1.8,-8.22 -2.9,-16.47 -4.24,-24.73 48.44,-37.92 104.67,-65.19 166.12,-78.84l756.11 -168.21c30.24,-6.77 60.82,-10.05 91.27,-10.05 78.7,0 156.21,22.47 224.86,66.07 94.82,60.33 160.51,153.53 184.64,262.47 1.87,8.26 2.89,16.55 4.2,24.8 -48.33,37.85 -104.49,65.12 -165.91,78.81zm262.92 -185.77c-39.15,-115.89 -116.27,-214.46 -221.61,-281.38 -121.78,-77.5 -265.75,-103.01 -406.26,-71.89l-756.07 168.2c-48.93,10.87 -95.32,28.36 -138.4,51.54 9.88,-51.47 29.28,-101.28 58.39,-147 60.36,-94.97 153.63,-160.55 262.5,-184.71l756.04 -168.21c30.3,-6.81 60.82,-10.05 91.22,-10.05 78.82,0 156.29,22.43 224.9,66.04 94.86,60.36 160.48,153.6 184.68,262.53 24.24,108.48 4.48,220.24 -55.39,314.93z"/>
   <path class="fil1" d="M8977.02 1239.21c0,5.89 3.42,11.28 8.82,13.68 109.6,48.86 242.99,76.45 379.66,76.45 249.8,0 419.24,-80.43 419.24,-287.48 0,-196.81 -118.08,-280.67 -347.38,-296.05 -100.97,-6.84 -191.67,-18.84 -191.67,-83.85 0,-71.87 90.7,-75.29 179.67,-75.29 75.57,0 213.64,25.01 282.79,51.23 9.73,3.7 20.11,-3.6 20.11,-14.01l0 -154.97c0,-5.47 -2.97,-10.59 -7.76,-13.16 -89.65,-48.19 -204.37,-67.6 -319.13,-67.6 -225.85,0 -408.94,90.7 -408.94,278.95 0,196.78 116.35,272.06 342.23,287.47 100.97,6.85 198.51,17.11 198.51,90.7 0,68.44 -97.54,80.4 -203.66,80.4 -96.02,0 -242.82,-21.73 -330.97,-65.19 -9.92,-4.9 -21.52,2.29 -21.52,13.37l0 165.35zm-890.63 -380.47c0,-147.15 85.59,-253.26 225.89,-253.26 142.06,0 227.57,99.27 227.57,253.26 0,155.71 -104.38,253.25 -227.57,253.25 -147.15,0 -225.89,-87.24 -225.89,-253.25zm-263.52 0c0,345.68 251.56,470.6 489.41,470.6 290.9,0 489.41,-207.08 489.41,-470.6 0,-87.78 -20.04,-170.93 -58.74,-242.08 -2.75,-5.05 0.77,-11.18 6.52,-11.18l107.46 0c8.22,0 14.96,-6.67 14.96,-14.93l0 -187.43c0,-8.25 -6.74,-14.96 -14.96,-14.96l-544.65 0c-337.08,0 -489.41,239.58 -489.41,470.58zm-763.2 44.52c0,275.48 118.07,426.08 398.74,426.08 87.21,0 166.51,-14.25 239.4,-47.31 5.33,-2.4 8.71,-7.79 8.71,-13.65l0 -173.71c0,-10.86 -11.15,-17.92 -21.13,-13.61 -50.59,21.76 -109.36,30.93 -160.23,30.93 -147.18,0 -203.69,-63.28 -203.69,-208.73l0 -274.85c0,-4.17 3.38,-7.52 7.54,-7.52l352.29 0c8.29,0 14.96,-6.7 14.96,-14.96l0 -175.43c0,-8.26 -6.67,-14.96 -14.96,-14.96l-352.29 0c-4.16,0 -7.54,-3.35 -7.54,-7.51l0 -211.99c0,-8.25 -6.67,-14.92 -14.93,-14.92l-231.91 0c-8.26,0 -14.96,6.67 -14.96,14.92l0 707.22zm-1143.53 395.28l237.03 0c8.26,0 14.99,-6.7 14.99,-14.95l0 -573.16c0,-2.51 1.2,-4.87 3.25,-6.28 69.11,-48.12 139.77,-72.99 203.8,-72.99 136.88,0 176.25,73.59 176.25,227.58l0 424.85c0,8.25 6.7,14.95 14.92,14.95l237.1 0c8.22,0 14.96,-6.7 14.96,-14.95l0 -464.19c0,-273.79 -101,-431.24 -342.3,-431.24 -112.47,0 -217.21,51.26 -300.85,118.29 -4.97,3.95 -12.31,0.53 -12.31,-5.82l0 -70.13c0,-8.26 -6.67,-14.96 -14.92,-14.96l-231.92 0c-8.26,0 -14.92,6.7 -14.92,14.96l0 853.09c0,8.25 6.66,14.95 14.92,14.95zm-1161.45 -400.43c0,273.79 95.81,431.23 333.69,431.23 108.23,0 205.46,-37.71 300.71,-117.69 4.94,-4.12 12.42,-0.7 12.42,5.72l0 66.22c0,8.25 6.7,14.95 14.92,14.95l228.53 0c8.25,0 14.96,-6.7 14.96,-14.95l0 -853.09c0,-8.26 -6.71,-14.96 -14.96,-14.96l-233.65 0c-8.25,0 -14.92,6.7 -14.92,14.96l0 570.33c0,2.16 -0.88,4.2 -2.47,5.61 -46.35,41.91 -118.88,79.91 -204.57,79.91 -131.8,0 -172.86,-73.59 -172.86,-222.46l0 -433.39c0,-8.26 -6.67,-14.96 -14.93,-14.96l-231.95 0c-8.25,0 -14.92,6.7 -14.92,14.96l0 467.61zm-1153.41 0c0,266.94 100.97,431.23 340.57,431.23 106.68,0 203.95,-37.78 300.78,-117.9 4.94,-4.05 12.35,-0.63 12.35,5.75l0 66.4c0,8.25 6.7,14.95 14.96,14.95l228.49 0c8.26,0 14.96,-6.7 14.96,-14.95l0 -853.09c0,-8.26 -6.7,-14.96 -14.96,-14.96l-233.61 0c-8.25,0 -14.96,6.7 -14.96,14.96l0 570.4c0,2.12 -0.81,4.1 -2.32,5.51 -40.04,37.18 -115.82,79.94 -204.72,79.94 -130.07,0 -171.13,-70.17 -171.13,-222.46l0 -433.39c0,-8.26 -6.71,-14.96 -14.96,-14.96l-240.49 0c-8.22,0 -14.96,6.7 -14.96,14.96l0 467.61zm-1028.42 177.97l0 186.9c0,6.04 3.6,11.5 9.21,13.8 52.21,21.41 171.13,57.68 288.54,57.68 311.43,0 489.41,-183.1 489.41,-501.37l0 -402.59c0,-8.26 -6.67,-14.96 -14.96,-14.96l-553.61 0c-8.26,0 -14.96,6.7 -14.96,14.96l0 189.12c0,8.26 6.7,14.96 14.96,14.96l294.11 0c4.12,0 7.55,3.39 7.55,7.55l0 144.74c0,207.05 -95.85,308.01 -289.21,308.01 -76.91,0 -149.65,-9.66 -210.79,-32.73 -9.8,-3.71 -20.25,3.45 -20.25,13.93z"/>
  </g>
 </g>
</svg>
